HIERARCHY
ROOT Hips
{
	OFFSET 0.00 86.18 0.00
	CHANNELS 6 Xposition Yposition Zposition Yrotation Xrotation Zrotation
	JOINT RightUpLeg
	{
		OFFSET -9.25 0.00 0.00
		CHANNELS 6 Xposition Yposition Zposition Yrotation Xrotation Zrotation
		JOINT RightLeg
		{
			OFFSET 0.00 -42.00 0.00
			CHANNELS 6 Xposition Yposition Zposition Yrotation Xrotation Zrotation
			JOINT RightFoot
			{
				OFFSET 0.00 -42.00 0.00
				CHANNELS 6 Xposition Yposition Zposition Yrotation Xrotation Zrotation
				End Site
				{
					OFFSET 0 -1.14 11.36
				}
			}
		}
	}
	JOINT LeftUpLeg
	{
		OFFSET 9.25 0.00 0.00
		CHANNELS 6 Xposition Yposition Zposition Yrotation Xrotation Zrotation
		JOINT LeftLeg
		{
			OFFSET 0.00 -42.00 0.00
			CHANNELS 6 Xposition Yposition Zposition Yrotation Xrotation Zrotation
			JOINT LeftFoot
			{
				OFFSET 0.00 -42.00 0.00
				CHANNELS 6 Xposition Yposition Zposition Yrotation Xrotation Zrotation
				End Site
				{
					OFFSET 0 -1.14 11.36
				}
			}
		}
	}
	JOINT Spine
	{
		OFFSET 0.00 10.46 0.00
		CHANNELS 6 Xposition Yposition Zposition Yrotation Xrotation Zrotation
		JOINT Spine1
		{
			OFFSET 0.00 9.75 0.00
			CHANNELS 6 Xposition Yposition Zposition Yrotation Xrotation Zrotation
			JOINT Spine2
			{
				OFFSET 0.00 10.15 0.00
				CHANNELS 6 Xposition Yposition Zposition Yrotation Xrotation Zrotation
				JOINT Spine3
				{
					OFFSET 0.00 9.75 0.00
					CHANNELS 6 Xposition Yposition Zposition Yrotation Xrotation Zrotation
			 		JOINT Neck
					{
						OFFSET 0.00 10.42 0.00
						CHANNELS 6 Xposition Yposition Zposition Yrotation Xrotation Zrotation
						JOINT Head
						{
							OFFSET 0.00 9.50 0.00
							CHANNELS 6 Xposition Yposition Zposition Yrotation Xrotation Zrotation
							End Site
							{
								OFFSET 0 16.00 0
							}
						}    
					} 
					JOINT RightShoulder
	 					{
						OFFSET -3.20 6.94 0.00
						CHANNELS 6 Xposition Yposition Zposition Yrotation Xrotation Zrotation
						JOINT RightArm
						{
							OFFSET -16.00 0.00 0.00
							CHANNELS 6 Xposition Yposition Zposition Yrotation Xrotation Zrotation
							JOINT RightForeArm
							{
								OFFSET -26.50 0.00 0.00
								CHANNELS 6 Xposition Yposition Zposition Yrotation Xrotation Zrotation
								JOINT RightHand
								{
									OFFSET -26.00 0.00 0.00
									CHANNELS 6 Xposition Yposition Zposition Yrotation Xrotation Zrotation
									End Site
									{
										OFFSET -17.50 0 0
									}
								}
							}
						}	
					}
					JOINT LeftShoulder
					{
						OFFSET 3.20 6.94 0.00
						CHANNELS 6 Xposition Yposition Zposition Yrotation Xrotation Zrotation
						JOINT LeftArm
						{
							OFFSET 16.00 0.00 0.00
							CHANNELS 6 Xposition Yposition Zposition Yrotation Xrotation Zrotation
							JOINT LeftForeArm
							{
								OFFSET 26.50 0.00 0.00
								CHANNELS 6 Xposition Yposition Zposition Yrotation Xrotation Zrotation
								JOINT LeftHand
								{
									OFFSET 26.00 0.00 0.00
									CHANNELS 6 Xposition Yposition Zposition Yrotation Xrotation Zrotation
									End Site
									{
										OFFSET 17.50 0 0
									}
								}
							}
						}
					}     			
				}
			}
		} 
	} 
}
MOTION
Frames: 13
Frame Time: 0.010
86.57 84.95 92.14 16.17 -1.51 -2.92 -9.29 -0.07 -0.09 -17.90 -0.94 -3.21 0.16 -41.63 0.27 15.67 63.46 -0.18 -0.17 -42.32 -0.26 -7.39 -8.27 9.49 9.39 -0.05 -0.16 17.33 -42.66 -1.75 -0.02 -41.82 0.63 -21.85 59.20 -15.01 -0.27 -41.62 -0.22 13.96 -19.90 -9.23 0.24 10.41 0.36 9.23 16.85 12.40 0.23 9.65 0.88 2.53 4.28 2.84 -0.04 10.21 0.28 4.71 6.54 4.72 0.21 9.77 0.36 -0.99 -0.10 0.39 -0.01 10.38 1.49 -1.00 -0.09 0.40 0.16 9.45 1.08 -18.26 0.61 7.19 -2.95 6.97 0.48 -6.73 4.40 4.15 -15.94 0.01 0.11 8.71 9.42 38.35 -26.43 -0.11 0.03 62.59 1.83 -1.57 -25.92 0.01 0.25 9.48 4.91 2.17 3.47 6.94 0.49 -0.82 6.52 2.03 16.05 -0.08 0.03 13.76 17.04 -71.06 26.50 0.01 0.09 -100.17 2.49 -16.59 25.96 0.04 0.13 6.61 16.30 -2.44 
88.07 84.24 94.40 15.69 -2.74 -2.93 -9.27 -0.07 -0.11 -15.75 -0.32 -4.26 0.16 -41.64 0.31 12.01 69.10 -2.89 -0.18 -42.29 -0.23 -9.03 -9.80 7.55 9.48 -0.01 -0.15 16.59 -42.33 -0.99 0.05 -41.81 0.71 -23.71 52.17 -15.31 -0.21 -41.74 -0.14 13.69 -19.61 -9.11 0.28 10.40 0.39 9.42 16.71 12.90 0.28 9.63 0.97 2.59 4.24 2.96 -0.04 10.22 0.32 4.80 6.45 4.91 0.22 9.77 0.40 -1.06 -0.01 0.38 0.08 10.38 1.66 -1.07 -0.01 0.38 0.29 9.47 1.14 -19.57 2.21 6.72 -2.93 6.97 0.54 -6.53 4.63 3.89 -15.94 0.01 0.11 8.49 8.93 38.23 -26.42 -0.13 0.03 62.42 1.72 -1.21 -25.89 0.07 0.48 8.49 5.46 2.85 3.48 6.95 0.53 -0.63 6.63 2.34 16.12 -0.06 0.02 14.76 18.76 -70.13 26.50 0.07 0.09 -101.18 2.37 -15.96 25.96 0.05 0.15 7.04 16.80 -2.92 
89.62 83.41 96.73 15.19 -4.13 -2.96 -9.22 -0.09 -0.14 -13.02 0.50 -5.18 0.16 -41.67 0.33 5.29 75.02 -8.61 -0.20 -42.27 -0.25 -10.08 -11.48 5.64 9.38 0.00 -0.11 14.12 -41.57 1.70 0.02 -41.75 0.61 -23.24 45.25 -14.88 -0.09 -41.89 -0.08 12.37 -19.58 -8.19 0.32 10.40 0.42 9.48 16.58 13.39 0.36 9.61 1.05 2.61 4.20 3.08 -0.03 10.23 0.37 4.84 6.36 5.10 0.23 9.77 0.46 -1.12 0.09 0.35 0.24 10.38 1.88 -1.13 0.10 0.35 0.45 9.50 1.19 -20.49 3.99 5.86 -2.88 6.98 0.61 -6.24 5.11 3.89 -15.94 0.02 0.10 8.32 8.44 38.02 -26.22 -0.01 0.12 61.18 2.36 -0.45 -25.89 0.19 0.63 10.11 4.83 2.09 3.52 6.96 0.60 -0.47 6.55 2.87 16.13 -0.09 0.04 15.68 20.63 -69.16 26.51 0.07 0.10 -102.21 2.19 -15.09 25.97 0.05 0.18 7.64 17.28 -3.39 
91.25 82.44 99.12 14.68 -5.67 -2.99 -9.19 -0.10 -0.11 -10.07 1.68 -5.88 0.12 -41.65 0.38 -5.47 80.70 -18.53 -0.26 -42.24 -0.33 -11.64 -12.94 3.62 9.25 0.03 -0.02 10.50 -40.06 5.40 -0.09 -41.67 0.41 -21.97 38.36 -14.42 0.01 -42.05 -0.06 11.64 -19.27 -7.25 0.36 10.40 0.46 8.92 16.43 14.33 0.44 9.61 1.12 2.48 4.15 3.34 0.06 10.23 0.44 4.66 6.26 5.50 0.32 9.77 0.52 -1.12 0.23 0.25 0.43 10.36 2.09 -1.13 0.23 0.26 0.62 9.53 1.25 -20.69 5.68 3.77 -2.83 6.98 0.66 -5.47 5.95 3.10 -15.93 0.02 0.08 8.13 8.03 37.70 -26.06 0.14 0.21 60.02 3.13 0.25 -25.88 0.35 0.76 11.41 3.78 1.22 3.57 6.98 0.61 -0.15 6.48 2.50 16.15 -0.10 0.02 17.19 22.41 -68.19 26.51 0.09 0.10 -103.19 2.27 -14.61 25.98 0.04 0.22 8.38 17.63 -3.79 
92.98 81.34 101.56 14.12 -7.30 -2.98 -9.20 -0.09 -0.09 -7.60 2.88 -6.37 0.16 -41.85 0.41 -41.88 86.32 -55.12 -0.21 -42.19 -0.22 -14.30 -14.53 2.28 9.22 0.07 0.08 7.19 -37.94 8.49 -0.19 -41.57 0.19 -20.26 32.19 -13.23 -0.02 -42.21 -0.06 11.87 -18.33 -6.74 0.40 10.41 0.48 8.53 16.32 14.86 0.51 9.63 1.16 2.39 4.12 3.48 0.06 10.24 0.46 4.52 6.19 5.72 0.32 9.77 0.54 -1.12 0.35 0.19 0.61 10.35 2.26 -1.13 0.35 0.19 0.77 9.57 1.30 -20.68 7.31 2.24 -2.80 6.99 0.70 -5.09 6.68 3.14 -15.93 0.00 0.09 7.97 7.67 37.39 -26.41 -0.23 0.03 61.42 1.44 -1.51 -25.90 -0.03 0.36 10.32 4.86 3.39 3.61 7.00 0.60 0.20 6.02 3.15 16.16 -0.09 -0.05 18.89 23.80 -67.20 26.52 0.12 0.07 -104.03 2.34 -14.71 26.00 0.02 0.25 9.06 17.95 -4.04 
94.81 80.13 104.03 13.38 -8.90 -2.96 -9.19 -0.08 -0.05 -5.59 3.83 -6.77 0.21 -41.93 0.38 -129.90 84.70 -143.86 -0.23 -42.13 -0.22 -17.06 -15.32 1.07 9.19 0.11 0.15 4.48 -35.66 10.94 -0.27 -41.49 0.04 -16.88 27.49 -11.34 -0.03 -42.26 -0.11 11.02 -16.56 -5.82 0.44 10.41 0.50 7.86 16.13 15.52 0.56 9.65 1.16 2.23 4.07 3.67 0.09 10.23 0.47 4.27 6.09 6.01 0.35 9.77 0.55 -1.07 0.48 0.09 0.81 10.31 2.36 -1.09 0.48 0.10 0.92 9.62 1.31 -20.15 8.94 0.27 -2.76 7.00 0.71 -4.61 7.28 2.86 -15.92 -0.01 0.10 7.74 7.53 37.16 -26.41 -0.25 0.03 61.21 1.69 -1.75 -25.89 0.01 0.35 10.67 4.81 3.84 3.65 6.98 0.62 1.38 5.84 3.83 16.17 -0.08 -0.09 20.43 24.55 -66.20 26.52 0.13 0.03 -104.77 2.21 -15.51 26.01 -0.01 0.27 9.50 18.28 -4.14 
96.71 78.84 106.50 12.42 -10.43 -2.87 -9.19 -0.08 -0.00 -4.23 4.34 -7.23 0.25 -42.01 0.32 -145.20 78.76 -160.80 -0.26 -42.09 -0.17 -19.44 -15.94 -0.06 9.10 0.08 0.13 1.95 -33.52 13.06 -0.34 -41.43 -0.06 -12.94 24.39 -9.79 -0.04 -42.31 -0.16 9.89 -14.70 -4.56 0.48 10.42 0.50 7.16 15.88 16.20 0.62 9.69 1.12 2.06 4.00 3.87 0.12 10.22 0.47 4.01 5.98 6.32 0.38 9.77 0.53 -1.02 0.61 -0.01 1.00 10.27 2.37 -1.03 0.60 -0.01 1.07 9.66 1.29 -19.55 10.52 -1.83 -2.73 7.02 0.68 -4.35 7.42 2.51 -15.91 -0.02 0.10 7.45 7.69 36.99 -26.41 -0.24 0.01 61.15 1.97 -1.88 -25.92 -0.37 0.05 12.55 3.37 1.19 3.68 6.93 0.65 2.88 5.97 4.61 16.19 -0.10 -0.05 22.06 24.72 -64.97 26.52 0.13 0.02 -105.60 1.57 -16.93 26.02 -0.03 0.29 9.59 18.62 -3.99 
98.65 77.49 108.94 11.46 -11.87 -2.75 -9.22 -0.08 0.06 -3.07 4.43 -7.65 0.25 -42.10 0.26 -144.94 72.60 -162.52 -0.25 -42.01 -0.10 -20.79 -15.96 -0.68 9.07 0.02 0.03 0.65 -31.98 13.96 -0.33 -41.40 -0.09 -10.88 23.03 -8.65 -0.12 -42.36 -0.13 9.24 -13.10 -3.79 0.52 10.43 0.49 6.44 15.60 16.96 0.65 9.71 1.08 1.89 3.93 4.08 0.14 10.21 0.45 3.75 5.86 6.65 0.39 9.76 0.50 -0.96 0.72 -0.12 1.16 10.23 2.31 -0.97 0.71 -0.12 1.19 9.70 1.24 -18.97 11.83 -4.09 -2.72 7.02 0.63 -4.47 6.93 2.06 -15.90 -0.03 0.10 6.95 8.05 36.85 -26.42 -0.25 -0.01 61.35 2.20 -1.63 -25.91 -0.37 0.00 12.94 3.28 0.92 3.67 6.90 0.67 3.82 6.22 4.96 16.22 -0.11 0.05 24.04 24.71 -63.41 26.51 0.12 0.09 -106.64 0.56 -18.30 26.02 -0.05 0.31 9.44 18.74 -3.45 
100.53 77.15 111.16 10.36 -13.23 -2.55 -9.24 -0.08 0.04 -1.41 3.80 -8.24 0.25 -42.15 0.10 -142.33 66.66 -161.88 -0.20 -41.91 -0.07 -20.85 -15.56 -0.79 9.30 0.05 -0.05 2.92 -31.08 12.17 -0.06 -41.41 -0.07 -14.26 22.68 -7.83 -0.16 -42.57 0.01 10.14 -11.66 -4.40 0.54 10.44 0.45 5.74 15.39 17.78 0.68 9.73 0.95 1.73 3.88 4.31 0.16 10.19 0.39 3.51 5.77 6.99 0.39 9.75 0.40 -0.89 0.81 -0.25 1.29 10.19 2.07 -0.90 0.80 -0.25 1.25 9.71 1.10 -18.32 12.83 -6.56 -2.72 7.03 0.50 -4.84 6.11 1.48 -15.90 -0.03 0.09 6.22 8.31 36.68 -26.43 -0.24 -0.02 61.83 2.40 -0.93 -25.90 -0.35 -0.03 13.35 2.99 0.39 3.63 6.91 0.60 3.59 6.43 4.43 16.25 -0.08 0.13 25.80 24.77 -61.71 26.50 0.10 0.19 -107.55 -0.41 -18.42 26.01 -0.05 0.33 9.11 18.40 -2.41 
102.46 76.89 113.30 9.17 -14.52 -2.30 -9.22 -0.10 0.02 0.64 2.59 -8.99 0.26 -42.19 -0.11 -139.92 61.41 -161.24 -0.13 -41.88 -0.02 -20.10 -15.77 -0.84 9.27 0.03 -0.14 6.66 -30.58 10.39 -0.03 -41.52 0.08 -20.77 23.28 -8.63 -0.16 -42.80 0.19 11.57 -8.94 -5.93 0.54 10.45 0.40 5.14 15.33 18.64 0.62 9.69 0.80 1.60 3.87 4.55 0.11 10.17 0.32 3.31 5.74 7.35 0.30 9.73 0.27 -0.83 0.87 -0.37 1.25 10.15 1.64 -0.85 0.87 -0.37 1.26 9.67 0.86 -17.99 13.38 -8.95 -2.81 7.02 0.30 -5.39 5.02 0.85 -15.89 -0.04 0.10 5.33 8.54 36.49 -26.44 -0.21 -0.01 62.60 2.52 -0.08 -25.90 -0.32 -0.08 13.76 2.57 -0.25 3.49 6.93 0.42 1.97 6.51 3.35 16.23 -0.03 0.16 26.90 24.89 -60.54 26.48 0.08 0.24 -108.09 -1.06 -17.00 26.00 -0.06 0.34 8.62 17.63 -0.83 
103.76 77.69 115.24 7.96 -15.86 -1.93 -9.16 -0.14 0.07 2.45 0.96 -9.99 0.25 -42.29 -0.29 -137.83 57.05 -160.84 -0.09 -41.86 0.10 -18.85 -16.72 -1.20 9.31 0.12 -0.04 8.59 -29.50 9.66 0.13 -41.60 0.17 -27.44 23.73 -10.46 -0.38 -42.59 0.27 17.32 -2.48 -11.85 0.53 10.45 0.38 4.60 15.45 19.42 0.60 9.63 0.70 1.48 3.91 4.76 0.10 10.16 0.30 3.16 5.79 7.67 0.25 9.72 0.17 -0.80 0.88 -0.50 1.23 10.15 1.19 -0.81 0.88 -0.50 1.26 9.63 0.72 -17.91 12.97 -11.38 -2.87 7.01 0.13 -6.13 3.77 0.45 -15.86 -0.05 0.14 4.49 8.80 36.13 -26.46 -0.20 0.00 63.55 2.51 0.76 -25.90 -0.28 -0.12 13.94 2.20 -0.72 3.40 6.99 0.19 -0.70 6.16 2.09 16.18 0.03 0.12 27.38 25.04 -60.01 26.47 0.05 0.26 -108.09 -1.28 -14.56 25.97 -0.05 0.33 7.86 16.52 1.25 
105.12 77.60 117.36 7.55 -17.32 -1.65 -9.09 -0.19 0.08 3.34 -0.98 -10.93 0.23 -42.38 -0.39 -135.62 53.89 -159.87 -0.06 -41.77 0.21 -17.47 -17.83 -0.81 9.11 0.13 0.11 8.37 -28.87 10.28 0.21 -41.48 -0.00 -30.10 24.73 -12.82 -0.48 -41.62 0.01 19.59 9.37 -17.32 0.50 10.45 0.36 3.84 16.11 20.22 0.63 9.55 0.67 1.32 4.10 4.98 0.15 10.16 0.31 2.97 6.07 7.99 0.27 9.72 0.10 -0.77 0.81 -0.65 1.23 10.19 0.81 -0.79 0.81 -0.65 1.23 9.61 0.71 -17.59 10.97 -13.83 -2.91 7.00 -0.03 -7.08 1.25 0.50 -15.83 -0.04 0.10 3.75 9.52 35.58 -26.49 -0.20 0.00 64.46 2.56 1.45 -25.90 -0.23 -0.15 13.91 1.85 -1.02 3.36 7.08 -0.04 -4.08 5.19 0.58 16.10 0.15 0.04 27.54 24.26 -60.16 26.46 0.02 0.22 -107.50 -1.08 -11.78 25.95 -0.05 0.29 6.83 15.21 3.47 
105.80 77.58 119.37 7.21 -19.01 -0.89 -9.12 -0.16 0.06 4.43 -3.47 -11.72 0.21 -42.41 -0.49 -134.64 51.88 -159.09 0.02 -41.69 0.23 -16.62 -19.35 0.17 9.28 0.12 0.25 8.42 -28.57 9.59 0.42 -41.40 -0.04 -32.16 28.38 -15.08 -0.79 -41.62 -0.08 22.11 10.61 -13.41 0.51 10.43 0.32 2.95 17.35 19.91 0.69 9.48 0.72 1.11 4.44 4.92 0.15 10.16 0.37 2.70 6.61 7.88 0.22 9.73 0.06 -0.65 0.83 -0.70 1.21 10.28 0.57 -0.67 0.82 -0.71 1.20 9.63 0.52 -15.64 11.51 -14.69 -2.91 7.08 -0.29 -6.96 -1.42 2.79 -15.80 0.09 -0.10 2.15 9.70 34.23 -26.50 -0.20 -0.00 65.16 2.83 2.05 -25.89 -0.19 -0.15 13.66 1.55 -1.31 3.35 7.08 -0.16 -6.54 4.19 0.79 16.04 0.23 -0.03 26.99 21.94 -61.53 26.45 0.01 0.14 -106.17 -0.86 -9.49 25.92 -0.05 0.23 5.53 14.05 5.43 
